<svg aria-hidden="true" style="position: absolute; width: 0; height: 0; overflow: hidden;" version="1.1" xmlns="http://www.w3.org/2000/svg" xmlns:xlink="http://www.w3.org/1999/xlink">
<defs>
<symbol id="icon-dollar-sign" viewBox="0 0 24 24">
<title>dollar-sign</title>
<path d="M14.5 11h-1.5v-5h4c0.6 0 1-0.4 1-1s-0.4-1-1-1h-4v-3c0-0.6-0.4-1-1-1s-1 0.4-1 1v3h-1.5c-2.5 0-4.5 2-4.5 4.5s2 4.5 4.5 4.5h1.5v5h-5c-0.6 0-1 0.4-1 1s0.4 1 1 1h5v3c0 0.6 0.4 1 1 1s1-0.4 1-1v-3h1.5c2.5 0 4.5-2 4.5-4.5s-2-4.5-4.5-4.5zM9.5 11c-1.4 0-2.5-1.1-2.5-2.5s1.1-2.5 2.5-2.5h1.5v5h-1.5zM14.5 18h-1.5v-5h1.5c1.4 0 2.5 1.1 2.5 2.5s-1.1 2.5-2.5 2.5z"></path>
</symbol>
<symbol id="icon-user-x" viewBox="0 0 24 24">
<title>user-x</title>
<path d="M12 14h-7c-2.8 0-5 2.2-5 5v2c0 0.6 0.4 1 1 1s1-0.4 1-1v-2c0-1.7 1.3-3 3-3h7c1.7 0 3 1.3 3 3v2c0 0.6 0.4 1 1 1s1-0.4 1-1v-2c0-2.8-2.2-5-5-5z"></path>
<path d="M8.5 12c2.8 0 5-2.2 5-5s-2.2-5-5-5-5 2.2-5 5 2.2 5 5 5zM8.5 4c1.7 0 3 1.3 3 3s-1.3 3-3 3-3-1.3-3-3 1.3-3 3-3z"></path>
<path d="M21.9 10.5l1.8-1.8c0.4-0.4 0.4-1 0-1.4s-1-0.4-1.4 0l-1.8 1.8-1.8-1.8c-0.4-0.4-1-0.4-1.4 0s-0.4 1 0 1.4l1.8 1.8-1.8 1.8c-0.4 0.4-0.4 1 0 1.4 0.2 0.2 0.5 0.3 0.7 0.3s0.5-0.1 0.7-0.3l1.8-1.8 1.8 1.8c0.2 0.2 0.5 0.3 0.7 0.3s0.5-0.1 0.7-0.3c0.4-0.4 0.4-1 0-1.4l-1.8-1.8z"></path>
</symbol>
<symbol id="icon-minus-circle" viewBox="0 0 24 24">
<title>minus-circle</title>
<path d="M12 1c-6.1 0-11 4.9-11 11s4.9 11 11 11 11-4.9 11-11-4.9-11-11-11zM12 21c-5 0-9-4-9-9s4-9 9-9c5 0 9 4 9 9s-4 9-9 9z"></path>
<path d="M16 11h-8c-0.6 0-1 0.4-1 1s0.4 1 1 1h8c0.6 0 1-0.4 1-1s-0.4-1-1-1z"></path>
</symbol>
<symbol id="icon-list" viewBox="0 0 24 24">
<title>list</title>
<path d="M8 7h13c0.6 0 1-0.4 1-1s-0.4-1-1-1h-13c-0.6 0-1 0.4-1 1s0.4 1 1 1z"></path>
<path d="M21 11h-13c-0.6 0-1 0.4-1 1s0.4 1 1 1h13c0.6 0 1-0.4 1-1s-0.4-1-1-1z"></path>
<path d="M21 17h-13c-0.6 0-1 0.4-1 1s0.4 1 1 1h13c0.6 0 1-0.4 1-1s-0.4-1-1-1z"></path>
<path d="M2.3 5.3c-0.2 0.2-0.3 0.4-0.3 0.7s0.1 0.5 0.3 0.7c0.2 0.2 0.4 0.3 0.7 0.3s0.5-0.1 0.7-0.3c0.2-0.2 0.3-0.4 0.3-0.7s-0.1-0.5-0.3-0.7c-0.4-0.4-1-0.4-1.4 0z"></path>
<path d="M2.3 11.3c-0.2 0.2-0.3 0.4-0.3 0.7s0.1 0.5 0.3 0.7c0.2 0.2 0.4 0.3 0.7 0.3s0.5-0.1 0.7-0.3c0.2-0.2 0.3-0.4 0.3-0.7s-0.1-0.5-0.3-0.7c-0.4-0.4-1-0.4-1.4 0z"></path>
<path d="M2.3 17.3c-0.2 0.2-0.3 0.4-0.3 0.7s0.1 0.5 0.3 0.7c0.2 0.2 0.4 0.3 0.7 0.3s0.5-0.1 0.7-0.3c0.2-0.2 0.3-0.4 0.3-0.7s-0.1-0.5-0.3-0.7c-0.4-0.4-1-0.4-1.4 0z"></path>
</symbol>
<symbol id="icon-folder-plus" viewBox="0 0 24 24">
<title>folder-plus</title>
<path d="M20 5h-8.5l-1.7-2.6c-0.2-0.2-0.5-0.4-0.8-0.4h-5c-1.7 0-3 1.3-3 3v14c0 1.7 1.3 3 3 3h16c1.7 0 3-1.3 3-3v-11c0-1.7-1.3-3-3-3zM21 19c0 0.6-0.4 1-1 1h-16c-0.6 0-1-0.4-1-1v-14c0-0.6 0.4-1 1-1h4.5l1.7 2.6c0.2 0.2 0.5 0.4 0.8 0.4h9c0.6 0 1 0.4 1 1v11z"></path>
<path d="M15 13h-2v-2c0-0.6-0.4-1-1-1s-1 0.4-1 1v2h-2c-0.6 0-1 0.4-1 1s0.4 1 1 1h2v2c0 0.6 0.4 1 1 1s1-0.4 1-1v-2h2c0.6 0 1-0.4 1-1s-0.4-1-1-1z"></path>
</symbol>
<symbol id="icon-folder" viewBox="0 0 24 24">
<title>folder</title>
<path d="M20 5h-8.5l-1.7-2.6c-0.2-0.2-0.5-0.4-0.8-0.4h-5c-1.7 0-3 1.3-3 3v14c0 1.7 1.3 3 3 3h16c1.7 0 3-1.3 3-3v-11c0-1.7-1.3-3-3-3zM21 19c0 0.6-0.4 1-1 1h-16c-0.6 0-1-0.4-1-1v-14c0-0.6 0.4-1 1-1h4.5l1.7 2.6c0.2 0.2 0.5 0.4 0.8 0.4h9c0.6 0 1 0.4 1 1v11z"></path>
</symbol>
<symbol id="icon-file-plus" viewBox="0 0 24 24">
<title>file-plus</title>
<path d="M20.9 7.6c-0.1-0.1-0.1-0.2-0.2-0.3l-6-6c-0.1-0.1-0.2-0.2-0.3-0.2-0.1-0.1-0.3-0.1-0.4-0.1h-8c-1.7 0-3 1.3-3 3v16c0 1.7 1.3 3 3 3h12c1.7 0 3-1.3 3-3v-12c0-0.1 0-0.3-0.1-0.4zM15 4.4l2.6 2.6h-2.6v-2.6zM18 21h-12c-0.6 0-1-0.4-1-1v-16c0-0.6 0.4-1 1-1h7v5c0 0.6 0.4 1 1 1h5v11c0 0.6-0.4 1-1 1z"></path>
<path d="M15 14h-2v-2c0-0.6-0.4-1-1-1s-1 0.4-1 1v2h-2c-0.6 0-1 0.4-1 1s0.4 1 1 1h2v2c0 0.6 0.4 1 1 1s1-0.4 1-1v-2h2c0.6 0 1-0.4 1-1s-0.4-1-1-1z"></path>
</symbol>
<symbol id="icon-file-text" viewBox="0 0 24 24">
<title>file-text</title>
<path d="M20.9 7.6c-0.1-0.1-0.1-0.2-0.2-0.3l-6-6c-0.1-0.1-0.2-0.2-0.3-0.2-0.1-0.1-0.3-0.1-0.4-0.1h-8c-1.7 0-3 1.3-3 3v16c0 1.7 1.3 3 3 3h12c1.7 0 3-1.3 3-3v-12c0-0.1 0-0.3-0.1-0.4zM15 4.4l2.6 2.6h-2.6v-2.6zM18 21h-12c-0.6 0-1-0.4-1-1v-16c0-0.6 0.4-1 1-1h7v5c0 0.6 0.4 1 1 1h5v11c0 0.6-0.4 1-1 1z"></path>
<path d="M16 12h-8c-0.6 0-1 0.4-1 1s0.4 1 1 1h8c0.6 0 1-0.4 1-1s-0.4-1-1-1z"></path>
<path d="M16 16h-8c-0.6 0-1 0.4-1 1s0.4 1 1 1h8c0.6 0 1-0.4 1-1s-0.4-1-1-1z"></path>
<path d="M8 10h2c0.6 0 1-0.4 1-1s-0.4-1-1-1h-2c-0.6 0-1 0.4-1 1s0.4 1 1 1z"></path>
</symbol>
<symbol id="icon-clock" viewBox="0 0 24 24">
<title>clock</title>
<path d="M12 1c-6.1 0-11 4.9-11 11s4.9 11 11 11 11-4.9 11-11-4.9-11-11-11zM12 21c-5 0-9-4-9-9s4-9 9-9c5 0 9 4 9 9s-4 9-9 9z"></path>
<path d="M16.4 13.1l-3.4-1.7v-5.4c0-0.6-0.4-1-1-1s-1 0.4-1 1v6c0 0.4 0.2 0.7 0.6 0.9l4 2c0.1 0.1 0.2 0.1 0.4 0.1 0.4 0 0.7-0.2 0.9-0.6s0-1-0.5-1.3z"></path>
</symbol>
<symbol id="icon-clipboard" viewBox="0 0 24 24">
<title>clipboard</title>
<path d="M18 3h-1c0-1.1-0.9-2-2-2h-6c-1.1 0-2 0.9-2 2h-1c-1.7 0-3 1.3-3 3v14c0 1.7 1.3 3 3 3h12c1.7 0 3-1.3 3-3v-14c0-1.7-1.3-3-3-3zM9 3h6v2h-6v-1c0 0 0 0 0 0s0 0 0 0v-1zM19 20c0 0.6-0.4 1-1 1h-12c-0.6 0-1-0.4-1-1v-14c0-0.6 0.4-1 1-1h1c0 1.1 0.9 2 2 2h6c1.1 0 2-0.9 2-2h1c0.6 0 1 0.4 1 1v14z"></path>
</symbol>
<symbol id="icon-check-circle" viewBox="0 0 24 24">
<title>check-circle</title>
<path d="M22 10.1c-0.6 0-1 0.4-1 1v0.9c0 5-4 9-9 9 0 0 0 0 0 0-5 0-9-4-9-9s4-9 9-9c0 0 0 0 0 0 1.3 0 2.5 0.3 3.7 0.8 0.5 0.2 1.1 0 1.3-0.5s0-1.1-0.5-1.3c-1.4-0.6-2.9-1-4.5-1 0 0 0 0 0 0-6.1 0-11 4.9-11 11s4.9 11 11 11c0 0 0 0 0 0 6.1 0 11-4.9 11-11v-0.9c0-0.6-0.4-1-1-1z"></path>
<path d="M9.7 10.3c-0.4-0.4-1-0.4-1.4 0s-0.4 1 0 1.4l3 3c0.2 0.2 0.4 0.3 0.7 0.3s0.5-0.1 0.7-0.3l10-10c0.4-0.4 0.4-1 0-1.4s-1-0.4-1.4 0l-9.3 9.3-2.3-2.3z"></path>
</symbol>
<symbol id="icon-book-open" viewBox="0 0 24 24">
<title>book-open</title>
<path d="M22 2h-6c-1.6 0-3.1 0.8-4 2-0.9-1.2-2.4-2-4-2h-6c-0.6 0-1 0.4-1 1v15c0 0.6 0.4 1 1 1h7c1.1 0 2 0.9 2 2 0 0.6 0.4 1 1 1s1-0.4 1-1c0-1.1 0.9-2 2-2h7c0.6 0 1-0.4 1-1v-15c0-0.6-0.4-1-1-1zM11 17.5c-0.6-0.3-1.3-0.5-2-0.5h-6v-13h5c1.7 0 3 1.3 3 3v10.5zM21 17h-6c-0.7 0-1.4 0.2-2 0.5v-10.5c0-1.7 1.3-3 3-3h5v13z"></path>
</symbol>
<symbol id="icon-archive" viewBox="0 0 24 24">
<title>archive</title>
<path d="M23 2h-22c-0.6 0-1 0.4-1 1v5c0 0.6 0.4 1 1 1h1v12c0 0.6 0.4 1 1 1h18c0.6 0 1-0.4 1-1v-12h1c0.6 0 1-0.4 1-1v-5c0-0.6-0.4-1-1-1zM20 20h-16v-11h16v11zM22 7h-20v-3h20v3z"></path>
<path d="M10 13h4c0.6 0 1-0.4 1-1s-0.4-1-1-1h-4c-0.6 0-1 0.4-1 1s0.4 1 1 1z"></path>
</symbol>
<symbol id="icon-alert-circle" viewBox="0 0 24 24">
<title>alert-circle</title>
<path d="M12 1c-6.1 0-11 4.9-11 11s4.9 11 11 11 11-4.9 11-11-4.9-11-11-11zM12 21c-5 0-9-4-9-9s4-9 9-9c5 0 9 4 9 9s-4 9-9 9z"></path>
<path d="M12 7c-0.6 0-1 0.4-1 1v4c0 0.6 0.4 1 1 1s1-0.4 1-1v-4c0-0.6-0.4-1-1-1z"></path>
<path d="M11.3 15.3c-0.2 0.2-0.3 0.4-0.3 0.7s0.1 0.5 0.3 0.7c0.2 0.2 0.4 0.3 0.7 0.3s0.5-0.1 0.7-0.3c0.2-0.2 0.3-0.5 0.3-0.7s-0.1-0.5-0.3-0.7c-0.4-0.4-1-0.4-1.4 0z"></path>
</symbol>
</defs>
</svg>
